<svg xmlns="http://www.w3.org/2000/svg" viewBox="0 0 512 512">
  <rect width="512" height="512" fill="#1a1a1a"/>
  <g transform="translate(106, 106) scale(0.6)" fill="#ffffff">
    <path d="M224 16c-63.8 0-117.4 41.9-138.5 100.2C36.3 123.4 0 165.8 0 216c0 66.3 53.7 120 120 120h12.6c14.6 59.6 68.2 104 131.4 104s116.8-44.4 131.4-104H408c66.3 0 120-53.7 120-120 0-50.2-36.3-92.6-85.5-109.8C421.4 57.9 367.8 16 304 16H224zM120 288c-39.8 0-72-32.2-72-72s32.2-72 72-72c28.1 0 52.6 16.1 64.4 39.7C199.6 192.2 218.6 200 240 200h48c21.4 0 40.4-7.8 55.6-16.3 11.8-23.6 36.3-39.7 64.4-39.7 39.8 0 72 32.2 72 72s-32.2 72-72 72h-11.6c-12.7 49.9-58 88-112.4 88s-99.7-38.1-112.4-88H120zm144 208c-53 0-96-43-96-96h192c0 53-43 96-96 96z"/>
  </g>
</svg>